<mxfile host="65bd71144e">
    <diagram id="Kt5vGRU-S3NVucFAIP6c" name="第 1 页">
        <mxGraphModel dx="441" dy="874" grid="1" gridSize="10" guides="1" tooltips="1" connect="1" arrows="1" fold="1" page="1" pageScale="1" pageWidth="827" pageHeight="1169" math="0" shadow="0">
            <root>
                <mxCell id="0"/>
                <mxCell id="1" parent="0"/>
                <mxCell id="5" style="edgeStyle=none;html=1;fontSize=19;" edge="1" parent="1" source="2">
                    <mxGeometry relative="1" as="geometry">
                        <mxPoint x="290" y="300" as="targetPoint"/>
                    </mxGeometry>
                </mxCell>
                <mxCell id="10" style="edgeStyle=none;html=1;fontSize=19;" edge="1" parent="1" source="2" target="9">
                    <mxGeometry relative="1" as="geometry"/>
                </mxCell>
                <mxCell id="13" style="edgeStyle=none;html=1;entryX=0.5;entryY=0;entryDx=0;entryDy=0;fontSize=19;" edge="1" parent="1" source="2" target="12">
                    <mxGeometry relative="1" as="geometry"/>
                </mxCell>
                <mxCell id="2" value="&lt;font style=&quot;font-size: 19px;&quot;&gt;&lt;b&gt;FiberNode&lt;/b&gt;&lt;/font&gt;" style="rounded=0;whiteSpace=wrap;html=1;fillColor=#f5f5f5;fontColor=#333333;strokeColor=#666666;" vertex="1" parent="1">
                    <mxGeometry x="294" y="270" width="120" height="60" as="geometry"/>
                </mxCell>
                <mxCell id="7" style="edgeStyle=none;html=1;entryX=0;entryY=0.5;entryDx=0;entryDy=0;fontSize=19;" edge="1" parent="1" source="3" target="2">
                    <mxGeometry relative="1" as="geometry"/>
                </mxCell>
                <mxCell id="3" value="&lt;b&gt;React Element&lt;/b&gt;" style="rounded=0;whiteSpace=wrap;html=1;fontSize=19;fillColor=#f5f5f5;fontColor=#333333;strokeColor=#666666;" vertex="1" parent="1">
                    <mxGeometry x="50" y="270" width="160" height="60" as="geometry"/>
                </mxCell>
                <mxCell id="8" value="比较" style="text;html=1;align=center;verticalAlign=middle;resizable=0;points=[];autosize=1;strokeColor=none;fillColor=none;fontSize=19;" vertex="1" parent="1">
                    <mxGeometry x="220" y="270" width="60" height="40" as="geometry"/>
                </mxCell>
                <mxCell id="9" value="各种标记" style="rounded=0;whiteSpace=wrap;html=1;fontSize=19;fillColor=#f5f5f5;fontColor=#333333;strokeColor=#666666;" vertex="1" parent="1">
                    <mxGeometry x="510" y="270" width="120" height="60" as="geometry"/>
                </mxCell>
                <mxCell id="11" value="产生" style="text;html=1;align=center;verticalAlign=middle;resizable=0;points=[];autosize=1;strokeColor=none;fillColor=none;fontSize=19;" vertex="1" parent="1">
                    <mxGeometry x="430" y="260" width="60" height="40" as="geometry"/>
                </mxCell>
                <mxCell id="20" style="edgeStyle=none;html=1;exitX=1;exitY=0.5;exitDx=0;exitDy=0;entryX=0;entryY=0.5;entryDx=0;entryDy=0;fontSize=19;" edge="1" parent="1" source="12" target="18">
                    <mxGeometry relative="1" as="geometry"/>
                </mxCell>
                <mxCell id="22" style="edgeStyle=none;html=1;exitX=0.5;exitY=1;exitDx=0;exitDy=0;entryX=0.5;entryY=0;entryDx=0;entryDy=0;fontSize=19;" edge="1" parent="1" source="12" target="21">
                    <mxGeometry relative="1" as="geometry"/>
                </mxCell>
                <mxCell id="12" value="子FiberNode" style="rounded=0;whiteSpace=wrap;html=1;fontSize=19;fillColor=#f5f5f5;fontColor=#333333;strokeColor=#666666;" vertex="1" parent="1">
                    <mxGeometry x="294" y="390" width="120" height="60" as="geometry"/>
                </mxCell>
                <mxCell id="14" value="生成" style="text;html=1;align=center;verticalAlign=middle;resizable=0;points=[];autosize=1;strokeColor=none;fillColor=none;fontSize=19;" vertex="1" parent="1">
                    <mxGeometry x="360" y="340" width="60" height="40" as="geometry"/>
                </mxCell>
                <mxCell id="16" style="edgeStyle=none;html=1;exitX=1;exitY=0.5;exitDx=0;exitDy=0;entryX=0;entryY=0.5;entryDx=0;entryDy=0;fontSize=19;" edge="1" parent="1" source="15" target="12">
                    <mxGeometry relative="1" as="geometry"/>
                </mxCell>
                <mxCell id="15" value="&lt;b&gt;子React Element&lt;/b&gt;" style="rounded=0;whiteSpace=wrap;html=1;fontSize=19;fillColor=#f5f5f5;fontColor=#333333;strokeColor=#666666;" vertex="1" parent="1">
                    <mxGeometry x="50" y="390" width="160" height="60" as="geometry"/>
                </mxCell>
                <mxCell id="17" value="比较" style="text;html=1;align=center;verticalAlign=middle;resizable=0;points=[];autosize=1;strokeColor=none;fillColor=none;fontSize=19;" vertex="1" parent="1">
                    <mxGeometry x="220" y="380" width="60" height="40" as="geometry"/>
                </mxCell>
                <mxCell id="18" value="各种标记" style="rounded=0;whiteSpace=wrap;html=1;fontSize=19;fillColor=#f5f5f5;fontColor=#333333;strokeColor=#666666;" vertex="1" parent="1">
                    <mxGeometry x="510" y="390" width="120" height="60" as="geometry"/>
                </mxCell>
                <mxCell id="19" value="产生" style="text;html=1;align=center;verticalAlign=middle;resizable=0;points=[];autosize=1;strokeColor=none;fillColor=none;fontSize=19;" vertex="1" parent="1">
                    <mxGeometry x="430" y="380" width="60" height="40" as="geometry"/>
                </mxCell>
                <mxCell id="21" value="孙FiberNode" style="rounded=0;whiteSpace=wrap;html=1;fontSize=19;fillColor=#f5f5f5;fontColor=#333333;strokeColor=#666666;" vertex="1" parent="1">
                    <mxGeometry x="294" y="500" width="120" height="60" as="geometry"/>
                </mxCell>
                <mxCell id="23" value="生成" style="text;html=1;align=center;verticalAlign=middle;resizable=0;points=[];autosize=1;strokeColor=none;fillColor=none;fontSize=19;" vertex="1" parent="1">
                    <mxGeometry x="354" y="460" width="60" height="40" as="geometry"/>
                </mxCell>
            </root>
        </mxGraphModel>
    </diagram>
</mxfile>